<svg id="Layer_1" data-name="Layer 1" xmlns="http://www.w3.org/2000/svg" viewBox="0 0 349.4468 251.2341"><defs><style>.cls-1{fill:#5f99ff;}.cls-2{fill:#ffdb3f;}.cls-3{fill:none;}.cls-3,.cls-4{stroke:#000;}.cls-4,.cls-5{fill:#fff;}</style></defs><polygon class="cls-1" points="0 249.191 53.617 97.021 179.234 0 274.213 45.957 282.383 68.936 158.298 179.745 207.319 182.957 153.702 251.234 0 249.191"/><path class="cls-2" d="M325.5745,324.6809l47.4893-58.2128,62.2979,169.0213H253.5426l111.351-106.3617Z" transform="translate(-85.9149 -184.2553)"/><path class="cls-3" d="M372.5532,364.5106" transform="translate(-85.9149 -184.2553)"/><path class="cls-4" d="M439.4468,214.8936" transform="translate(-85.9149 -184.2553)"/><path class="cls-5" d="M102.4255,421.1915q12.7661-40.0851,25.5319-80.17l37.2766-13.2766L137.66,420.6808Z" transform="translate(-85.9149 -184.2553)"/><path class="cls-5" d="M176.9787,314.4681l15.83-55.1489,48.5107-34.2128q-10.2129,36.5106-20.4256,73.0213Z" transform="translate(-85.9149 -184.2553)"/><path class="cls-5" d="M174.4255,323.1489l-27.5744,97.5319h41.3617q15.05-56.3782,30.1-112.7566Z" transform="translate(-85.9149 -184.2553)"/><path class="cls-5" d="M129.4894,333.3617q6.5468-21.4444,13.0936-42.8889l41.034-28.6005q-8.1856,28.4553-16.3715,56.9105Z" transform="translate(-85.9149 -184.2553)"/><path class="cls-3" d="M74.8511,300.17" transform="translate(-85.9149 -184.2553)"/></svg>